:FULLY-SPECIFIED
:DEGREES
1199
root 3.33949 16.4336 -1.96273 -36.4814 -86.7614 55.2365
lowerback -9.38296 0.969633 0.321405
upperback -5.70321 1.06343 -1.26565
thorax -0.623266 0.416244 -1.39364
lowerneck -15.3106 -1.90899 1.64659
upperneck 20.3536 -3.48238 1.00283
head 8.89373 -1.47044 -0.364229
rclavicle -5.56597e-015 1.56046e-014
rhumerus -30.8309 1.11674 -82.9397
rradius 41.4875
rwrist 10.3538
rhand -26.832 -6.19745
rfingers 7.12502
rthumb -0.25779 -36.177
lclavicle -5.56597e-015 1.56046e-014
lhumerus -44.6121 -1.00587 84.8213
lradius 31.7449
lwrist -10.9674
lhand -36.4152 -2.25509
lfingers 7.12502
lthumb -9.51039 27.5103
rfemur -12.6751 5.77913 22.7346
rtibia 28.8869
rfoot -17.3306 -12.0442
rtoes -25.4963
lfemur -38.7194 -19.1843 -18.6567
ltibia 18.1493
lfoot -5.38742 19.1673
ltoes -12.7141
1200
root 3.33009 16.4274 -1.9428 -41.366 -86.5983 60.133
lowerback -9.43439 0.896828 0.0174889
upperback -5.7513 0.985095 -1.34251
thorax -0.651289 0.380816 -1.30888
lowerneck -15.4201 -1.86679 1.68279
upperneck 20.4195 -3.43433 0.987029
head 8.93571 -1.44518 -0.371813
rclavicle 1.19271e-014 -3.08116e-015
rhumerus -31.043 0.627499 -83.0419
rradius 40.8986
rwrist 10.7501
rhand -26.8879 -6.32989
rfingers 7.12502
rthumb -0.3118 -36.3094
lclavicle 1.19271e-014 -3.08116e-015
lhumerus -44.3419 -0.928142 84.7733
lradius 31.5246
lwrist -11.1128
lhand -36.5282 -2.35239
lfingers 7.12502
lthumb -9.61941 27.408
rfemur -13.7076 4.74748 22.2415
rtibia 31.5351
rfoot -16.9069 -10.7207
rtoes -26.6304
lfemur -38.1774 -18.2341 -19.8028
ltibia 18.5291
lfoot -4.47574 18.534
ltoes -13.2422
1201
root 3.32455 16.4248 -1.92124 -45.7203 -86.4002 64.4554
lowerback -9.35039 0.827777 -0.278782
upperback -5.83589 0.909054 -1.41344
thorax -0.790814 0.346172 -1.22384
lowerneck -15.382 -1.83999 1.65849
upperneck 20.4217 -3.38493 0.960624
head 8.92945 -1.42742 -0.370383
rclavicle -5.56597e-015 1.87852e-014
rhumerus -31.4089 -0.0803549 -83.0212
rradius 40.4273
rwrist 11.3
rhand -26.6111 -6.40544
rfingers 7.12502
rthumb -0.0444765 -36.3852
lclavicle -5.56597e-015 1.87852e-014
lhumerus -44.1423 -0.874 84.7388
lradius 31.3544
lwrist -11.5066
lhand -36.3595 -2.3564
lfingers 7.12502
lthumb -9.4567 27.4114
rfemur -14.9282 3.49279 21.6753
rtibia 34.4696
rfoot -16.2273 -8.90741
rtoes -27.1489
lfemur -37.6421 -17.1356 -21.0531
ltibia 19.0429
lfoot -4.10907 17.5496
ltoes -10.3132
1202
root 3.32094 16.423 -1.8972 -47.5786 -86.2205 66.2865
lowerback -9.29783 0.734343 -0.431422
upperback -5.91986 0.789405 -1.4478
thorax -0.911156 0.287002 -1.18478
lowerneck -15.2802 -1.7944 1.6978
upperneck 20.3921 -3.29882 0.830234
head 8.89746 -1.39965 -0.409228
rclavicle 4.77083e-015 1.78906e-015
rhumerus -31.8174 -0.752268 -82.995
rradius 39.99
rwrist 11.8397
rhand -26.4252 -6.74061
rfingers 7.12502
rthumb 0.13511 -36.7203
lclavicle 4.77083e-015 1.78906e-015
lhumerus -43.9537 -0.842859 84.7913
lradius 31.233
lwrist -11.6869
lhand -36.4886 -2.14268
lfingers 7.12502
lthumb -9.58127 27.6195
rfemur -16.3208 2.19907 21.1838
rtibia 37.5593
rfoot -15.1189 -7.1418
rtoes -27.6647
lfemur -37.241 -16.0557 -22.1684
ltibia 19.65
lfoot -4.47105 15.6823
ltoes -8.83227
1203
root 3.32266 16.4215 -1.87513 -47.4256 -86.1833 66.0986
lowerback -9.22341 0.660242 -0.357574
upperback -5.93924 0.683599 -1.47158
thorax -0.972702 0.231119 -1.26027
lowerneck -15.3476 -1.75423 1.75209
upperneck 20.3463 -3.24077 0.771019
head 8.89229 -1.37389 -0.431592
rclavicle 0 1.5704e-014
rhumerus -32.1901 -1.50083 -82.9664
rradius 39.6158
rwrist 12.4431
rhand -26.2335 -6.52878
rfingers 7.12502
rthumb 0.32019 -36.5083
lclavicle 0 1.5704e-014
lhumerus -43.6114 -0.790016 84.6965
lradius 31.105
lwrist -12.0084
lhand -36.2803 -2.41489
lfingers 7.12502
lthumb -9.38028 27.3564
rfemur -17.8407 1.01976 20.9149
rtibia 40.775
rfoot -13.6023 -5.64719
rtoes -28.1703
lfemur -36.951 -15.4133 -22.7924
ltibia 20.2598
lfoot -4.64987 14.2101
ltoes -7.40987
